<?xml version="1.0" encoding="utf-8"?>
<svg xmlns="http://www.w3.org/2000/svg" viewBox="0 0.0003 520 519.9995" width="520px" height="520px" preserveAspectRatio="none"><g id="object-29" transform="matrix(1, 0, 0, 1, -5.684341886080802e-14, 0)"><path d="M 201.4 145.2 C 197.4 155.1 194.4 186.9 188.5 203.8 C 187.5 207.8 184.5 209.7 182.5 213.7 C 171.6 241.5 171.6 241.5 182.5 213.7 C 178.5 224.6 174.5 234.6 171.6 243.5 C 168.6 252.4 167.6 288.2 157.6 290.1 C 152.7 298.1 147.7 299.1 147.7 309 C 161.6 311 190.4 280.2 195.4 270.3 C 199.4 264.3 218.3 216.7 222.3 215.7 C 226.2 243.5 228.2 271.3 237.2 298.1 C 239.2 303.1 241.1 306 243.1 310 C 245.1 323.9 251.1 334.8 252.1 347.7 C 252.1 350.7 250.1 355.7 249.1 358.6 C 247.1 363.6 247.1 368.6 245.1 373.5 C 240.1 381.5 217.3 392.4 209.3 400.3 C 202.4 413.2 182.5 414.2 176.5 430.1 C 172.6 441 177.8 449.3 180.8 460.2 C 180.8 463.2 187.5 497.5 199.1 491.3 C 208.2 486.4 200.4 468.8 205.4 458.9 C 207.3 454.9 211.3 454.9 213.3 451 C 217.3 447 218.3 440.1 223.2 436.1 C 226.2 434.1 231.2 434.1 235.2 432.1 C 242.1 428.1 249.1 421.2 256 416.2 C 278.9 397.4 283.6 393 286.9 385.7 C 292 374.4 297.8 354.7 297.8 354.7 C 300.8 361.6 298.8 368.6 301.8 375.5 C 302.8 378.5 306.7 380.5 306.7 384.5 C 306.7 387.4 297.8 430.1 296.8 435.1 C 294.8 439.1 291.8 442 290.8 447 C 288.9 456.9 293.8 476.8 300.8 484.7 C 302.8 487.7 311.4 487.3 314.4 490.3 C 318.4 499 324 501.6 337.9 496.5 C 341.5 495.2 336.6 487.7 335.6 482.7 C 333.6 473.8 335.6 463.9 335.6 454.9 C 335.6 451 332.6 448 332.6 445 C 332.6 441 337.6 439.1 338.6 436.1 C 341.5 427.1 343.5 417.2 345.5 408.3 C 346.5 399.3 347.5 389.4 346.5 380.5 C 346.5 375.5 344.5 370.6 343.5 365.6 C 341.5 351.7 341.5 335.8 340.5 321.9 C 339.5 315 342.5 304 339.5 295.1 C 341.5 291.1 344.5 289.2 345.5 286.2 C 348.5 276.3 338.6 242.5 341.5 238.5 C 343.5 235.5 367.4 239.5 374.3 235.5 C 382.3 231.6 404.2 203.8 394.2 193.9 C 385.3 195.8 388.3 199.8 386.3 205.8 C 385.3 209.7 377.3 214.7 373.3 212.7 C 368.4 209.7 370.4 204.8 361.4 204.8 C 350.5 188.9 354.5 163.1 346.5 148.2 C 346.5 146.2 346.5 146.2 346.5 145.2 C 343.5 130.3 325.6 126.3 316.7 117.4 C 309.7 114.4 304.8 110.5 298.8 106.5 C 291.8 98.6 301.8 87.6 300.8 78.7 C 297.8 68.8 300.8 58.8 296.8 51.9 C 289.8 39 261 34 256 62.8 C 255.1 65.8 255.1 68.8 255.1 72.7 C 250.1 83.7 259 99.5 252.1 105.5 C 245.1 108.5 237.2 113.4 232.2 117.4 C 231.2 118.4 229.2 119.4 229.2 121.4 C 224.2 123.4 218.3 128.3 212.3 130.3 C 211.3 132.3 210.3 133.3 208.3 136.3 C 205.4 139.3 202.4 142.2 201.4 145.2 Z" style="fill: rgb(255, 20, 0); " id="object-5"><title>Dancer06</title></path><circle style="fill: none; stroke: rgb(250, 34, 0); stroke-width: 1;" cx="260" cy="260" r="260" transform="matrix(1, 0, 0, 0.999999, 0, 0.000263)"/></g></svg>