<?xml version="1.0" encoding="utf-8"?>
<svg width="355" height="500" viewBox="0 0 355 500" version="1.1" baseProfile="full" xmlns="http://www.w3.org/2000/svg">
   <g transform="scale(1,-1) translate(0,-500)">
      <path d="M 153.417 457 C 152.662 454.737 149.29 430.565 149.417 428.667 C 149.693 424.525 152.005 421.366 150.833 415.833 C 117.479 399.156 121.872 417.734 90 382.5 C 89.365 381.032 88.333 378.813 88.333 377.5 C 72.328 369.497 58.448 360.607 44.167 352.917 C 38.501 349.866 34.819 344.165 29.25 341.167 C 22.099 337.316 13.83 336.081 5 332.5 C 4.485 331.568 4.78 331.667 4.167 331.667 C 4.167 327.993 4.213 324.96 5.833 322.5 C 26.253 308.018 47.193 326.021 63.25 334.667 C 74.361 340.65 87.373 342.832 98 349.917 C 100.76 351.757 104.049 356.28 109.167 355 C 111.283 346.729 109.861 334.358 104.167 328.333 C 101.997 326.493 101.515 325.225 100.833 322.5 C 97.723 318.779 95.388 315.719 94.167 310.833 C 85.297 295.594 73.291 281.967 67.5 265 L 85 265 C 92.961 267.019 112.353 272.202 119.167 270.833 C 116.614 262.368 112.759 182.16 113.333 171.25 C 113.712 164.064 115.38 156.796 115 149.583 C 114.616 142.292 112.946 135.283 113.333 127.917 C 113.872 117.682 122.274 84.618 127.5 75 C 129.994 70.564 128.963 37.593 128.167 33.083 C 127.335 28.368 121.307 23.822 124.083 18.667 C 125.357 16.301 129.013 16.667 131.25 16.667 C 150.977 16.667 142.359 19.013 153.75 28.333 C 158.28 32.039 164.284 29.972 165.583 37.333 C 166.909 44.843 171.667 53.795 171.667 61.25 C 171.667 78.545 156.667 102.682 156.667 119.583 C 156.667 124.32 165 141.964 165 156.25 C 165 164.403 164.664 198.817 175.833 202.5 C 176.533 201.384 178.129 200.833 179.167 200.833 C 181.318 199.131 183.412 197.028 185.429 194.664 C 185.031 195.219 184.642 195.784 184.264 196.358 C 184.643 195.783 185.032 195.218 185.431 194.662 C 185.43 194.663 185.43 194.663 185.429 194.664 C 186.594 193.037 187.834 191.485 189.103 189.978 C 199.467 175.707 207.23 156.302 209.25 153.833 C 212.4 149.984 218.562 147.136 220.833 142.917 C 223.718 137.559 222.55 126.243 223.667 119.917 C 225.391 110.145 231.378 101.498 233.083 91.833 C 234.256 85.186 228.006 79.675 226.917 73.5 C 225.219 63.877 232.342 44.55 241.667 38.333 C 244.507 25.636 246.386 8.055 264.167 12.5 C 265.707 20.909 263.234 27.091 263.667 33.583 C 264.403 44.626 270.581 55.962 271.333 67.25 C 271.557 70.609 269.214 72.881 269 76.083 C 267.852 93.305 270.513 147.572 257.5 160 C 248.955 174.59 244.544 199.246 230.833 225.833 C 229.832 233.362 230.737 239.851 229.667 245.917 C 227.326 259.179 216.725 258.525 220.25 278.5 C 223.297 295.769 240.639 325.409 237.917 340.833 C 232.752 370.098 213.267 382.766 210 395.833 C 206.93 401.038 201.017 406.865 199.667 410.917 C 199.288 412.051 203.329 445.187 196.25 458.333 C 188.792 472.185 158.932 473.545 153.417 457 Z M 174.553 285.652 C 174.553 287.087 174.377 288.536 173.75 290 C 174.377 288.536 174.553 287.087 174.553 285.652 Z M 202.5 314.167 C 194.027 298.054 195.26 309.204 184.167 311.667 C 195.26 309.204 194.027 298.054 202.5 314.167 Z M 184.167 311.667 C 175.09 302.683 173.437 291.887 189.167 288.333 C 173.437 291.887 175.09 302.683 184.167 311.667 Z M 189.167 288.333 C 189.167 292.231 189.216 294.46 190 298.333 C 189.216 294.46 189.167 292.231 189.167 288.333 Z M 190 298.333 C 191.743 298.333 192.871 299.167 195 299.167 C 192.871 299.167 191.743 298.333 190 298.333 Z M 195 299.167 C 195 300.683 196.751 302.584 197.5 304.167 C 196.751 302.584 195 300.683 195 299.167 Z M 197.5 304.167 C 202.41 300.391 206.305 303.913 210 307.5 C 206.305 303.913 202.41 300.391 197.5 304.167 Z M 210 307.5 C 215.162 298.01 198.635 297.667 197.25 291.667 C 198.635 297.667 215.162 298.01 210 307.5 Z M 197.5 283.333 C 190.423 283.333 186.416 286.347 179.167 285 C 186.416 286.347 190.423 283.333 197.5 283.333 Z M 179.167 285 C 180.224 280.771 182.849 278.611 183.667 275.75 C 182.849 278.611 180.224 280.771 179.167 285 Z M 183.667 275.75 C 184.848 271.616 181.55 269.755 178.5 272.25 C 181.55 269.755 184.848 271.616 183.667 275.75 Z M 178.5 272.25 C 177.08 273.411 175.748 274.505 175 276.25 C 175.748 274.505 177.08 273.411 178.5 272.25 Z" opacity="0.980392" style="fill: rgb(255, 51, 64);"/>
   </g>
</svg>