<?xml version="1.0" encoding="utf-8"?>
<svg width="355" height="500" viewBox="0 0 355 500" version="1.1" baseProfile="full" xmlns="http://www.w3.org/2000/svg">
   <g transform="scale(1,-1) translate(0,-500)">
      <path d="M 121.292 150.171 C 121.141 148.552 121.011 146.939 120.917 145.333 C 120.819 143.673 120.994 142.023 121.261 140.373 C 121.218 135.428 121.133 131.737 121 129.75 C 120.097 116.202 117.607 103.376 118.333 89.583 C 118.544 85.59 120.2 82.576 122.5 78.333 C 126.987 73.184 120.833 69.014 120.833 64.583 C 120.833 57.427 119.545 52.108 118.667 45.083 C 118.091 40.477 121.427 36.638 121.667 32.083 C 121.929 27.108 118.781 21.444 122.417 17 C 124.923 13.936 128.385 14.167 132.083 14.167 C 149.689 14.167 143.204 18.589 146.417 29.833 C 147.544 33.781 152.275 38.927 154.333 42.75 C 157.068 47.829 160.248 55.991 161.25 61.667 C 164.263 78.742 162.157 106.531 165.167 123.583 C 167.275 135.53 172.5 148.329 172.5 160.417 C 172.5 165.694 174.8 201.664 185 198.333 C 188.546 191.947 188.272 185.1 190.083 179.667 C 193.704 168.806 200.716 159.434 204.25 148.833 C 205.847 144.043 202.993 136.809 203.583 131.5 C 205.263 116.382 210.865 101.477 211.667 86.25 C 212.432 71.71 209.414 58.74 212 44.083 C 214.21 31.56 218.914 34.892 225.167 27.25 C 233.06 17.602 233.384 4.791 253.333 11.667 C 253.333 22.535 249.769 30.008 249.25 38.833 C 247.932 61.242 249.167 89.864 249.167 112.917 C 249.167 117.983 249.717 123.411 248.833 128.417 C 242.692 163.217 235.833 141.82 235.833 192.917 C 235.833 213.958 230.638 233.844 228.333 254.583 C 228.077 256.893 226.457 262.198 228.667 263.917 C 231.139 265.84 239.409 258.851 242.5 256.667 C 248.066 253.884 257.889 253.529 258.25 259.667 C 258.908 270.851 228.333 337.051 228.333 360 C 234.553 360 238.126 358.076 242.417 358.833 C 251.623 360.458 265.524 368.928 271.583 376.333 C 276.521 382.368 278.43 390.72 283.5 396.917 C 287.398 401.68 293.333 404.934 293.333 413.333 C 296.992 426.541 313.345 439.572 300 452.917 C 295.792 457.125 286.846 466.747 280.917 459.5 C 279.27 457.488 282.06 433.924 275 423.333 C 266.618 415.486 258.743 408.796 250.833 400.833 C 242.108 385.883 230.571 402.894 225.833 410 C 224.333 412.781 222.647 414.579 220.825 415.767 C 220.378 416.059 219.924 416.314 219.461 416.538 L 219.461 416.537 C 218.036 417.226 216.543 417.62 215.002 417.88 C 216.543 417.62 218.036 417.227 219.46 416.538 C 215.734 419.065 212.179 419.003 205.583 420.167 C 200.421 421.078 194.066 424.658 187.5 426.667 C 187.5 432.4 188.986 433.841 192.5 436.667 C 194.052 442.631 193.135 475.932 178.333 482.5 C 166.646 489.593 159.776 483.782 148.333 480 C 147.666 476.831 146.493 475.486 145 473.333 C 144.857 472.853 144.725 472.359 144.603 471.852 C 144.533 471.675 144.482 471.506 144.482 471.329 C 144.313 470.951 144.167 470.565 144.167 470 C 144.184 470.009 144.201 470.017 144.218 470.025 C 141.591 455.726 145.663 433.078 139.167 423.333 C 137.899 422.482 138.333 420.356 138.333 419.167 L 135 419.167 C 134.485 418.235 134.78 418.333 134.167 418.333 C 134.167 416.15 133.333 414.941 133.333 413.333 C 126.354 401.874 116.324 394.066 110.5 383.25 C 92.997 350.745 111.099 341.69 116.25 312.5 C 116.902 308.803 117.5 281.399 117.5 274.167 C 119.683 264.392 121.254 188.543 121.292 150.171 Z M 119.5 374.917 C 106.991 380.278 121.388 389.906 128.333 399.167 C 121.388 389.906 106.991 380.278 119.5 374.917 Z" opacity="1.000000" style="fill: rgb(255, 51, 64);"/>
   </g>
</svg>