<?xml version="1.0" encoding="utf-8"?>
<svg xmlns="http://www.w3.org/2000/svg" viewBox="181.05 30.0471 195.75 466.9833" width="195.75px" height="466.983px" preserveAspectRatio="none"><path d="M 360.8 46.1 C 355.8 50.1 356.8 63.1 354.8 65.1 C 347.8 72.1 333.8 83.1 330.8 92.1 C 307.8 104.1 316.8 95.1 298.8 88.1 C 292.8 85.1 272.8 87.1 270.8 85.1 C 266.8 81.1 276.8 72.1 274.8 65.1 C 273.8 63.1 272.8 60.1 270.8 56.1 C 269.8 50.1 269.8 46.1 267.8 41.1 C 257.8 24.1 236.8 29.1 225.8 40.1 C 220.8 47.1 221.8 54.1 222.8 62.1 C 223.8 73.1 220.8 74.1 224.8 84.1 C 227.8 90.1 218.8 98.1 218.8 106.1 C 210.8 121.1 193.8 144.1 193.8 158.1 C 193.8 167.1 204.8 181.1 202.8 188.1 C 201.8 191.1 195.8 195.1 192.8 204.1 C 190.8 214.1 188.8 245.1 185.8 252.1 C 185.8 258.1 185.8 265.1 186.8 270.1 C 185.8 280.1 181.8 287.1 181.8 295.1 C 180.8 311.1 180.8 325.1 181.8 340.1 C 182.8 353.1 186.8 372.1 187.8 385.1 C 188.8 401.1 186.6 413.2 191.6 428.2 C 193.6 432.2 196.8 439.1 196.8 439.1 C 192.8 453.1 195.6 465.7 196.6 477.7 C 196.6 481.7 192.5 489 194.5 494 C 197.1 498.2 209.4 497.4 212.4 495.4 C 220.4 478.1 221.8 480.1 230.8 473.1 C 230.8 463.1 233.3 456.7 234.3 449.7 C 235.3 442.7 233.8 435.1 233.8 428.1 C 232.8 415.1 235.8 405.1 236.8 392.1 C 236.8 380.1 235.4 345.7 236.4 339.7 C 240.4 323.7 251.2 316.4 251.2 316.4 C 259.2 324.4 272.8 379.1 276.8 404.1 C 278.8 411.1 280.8 448.1 282.8 455.1 C 284.8 462.1 291.8 476.1 297.8 481.1 C 299.8 483.1 304.8 483.1 308.8 484.1 C 310.8 488.1 311.8 491.1 313.8 493.1 C 318.8 497.1 332.1 497.8 338.6 491.3 C 342.4 487.5 333.1 476.5 333.9 466.9 C 334.1 463.9 332.6 449.8 331.6 446.8 C 329.6 440.8 325.4 432.9 323.4 425.9 C 321.4 414.9 320.1 404.6 319 393.6 C 315.7 361.9 312.5 360 312.3 350.5 C 307.6 346.3 309.6 326.8 305.6 308.8 C 304.6 299.8 297.6 286.7 296.6 278.7 C 295.6 271.7 291.7 252.6 293.7 244.6 C 304.7 246.6 324 258.6 329 254.6 C 324.7 235.1 301.8 137.1 309.8 132.1 C 314.8 128.1 337.8 127.1 344.8 119.1 C 352.8 109.1 360.8 93.1 363.8 83.1 C 369.8 83.1 369.8 74.1 369.8 68.1 C 376.8 57.1 374.8 51.1 376.8 44.1 C 376.8 38.1 364.8 43.1 360.8 46.1 Z" style="fill: rgb(255, 20, 0);" id="object-0" transform="matrix(1, 0, 0, 1, 0, 5.684341886080802e-14)"><title>Dancer01</title></path></svg>